# xmcd
#
# Track frame offsets: 
#        150
#        16838
#        51570
#        73623
#        86945
#        105425
#        128605
#        146098
#        162163
#        180055
#        195743
#        220605
#        255113
#
# Disc length: 3903 seconds
#
# Revision: 9
# Processed by: cddbd v1.5.2PL0 Copyright (c) Steve Scherf et al.
# Submitted via: ExactAudioCopy v1.3
#
DISCID=a70f3d0d
DTITLE=Alabama - Alabama Live
DYEAR=1988
DGENRE=Country
TTITLE0=Can't Keep a Good Man Down
TTITLE1=Tennessee River
TTITLE2=Take Me Down
TTITLE3=Love in the First Degree
TTITLE4=Red River
TTITLE5=Dixieland Delight
TTITLE6=Lady Down on Love
TTITLE7=If You're Gonna Play in Texas
TTITLE8=Fireworks
TTITLE9=There's No Way - When We Make Love
TTITLE10=Gonna Have a Party
TTITLE11=Can't You See
TTITLE12=My Home's in Alabama
EXTD=YEAR: 1988
EXTT0=
EXTT1=
EXTT2=
EXTT3=
EXTT4=
EXTT5=
EXTT6=
EXTT7=
EXTT8=
EXTT9=
EXTT10=
EXTT11=
EXTT12=
PLAYORDER=
